<svg width="26" height="26" viewBox="0 0 26 26" fill="none" xmlns="http://www.w3.org/2000/svg">
<circle cx="13" cy="13" r="11.375" fill="#1ED760"/>
<path d="M18.171 17.5687C17.9767 17.877 17.5621 17.9634 17.2382 17.7783C14.6859 16.2982 11.4858 15.9652 7.70269 16.7792C7.33993 16.8533 6.97716 16.6436 6.89943 16.2982C6.82169 15.9528 7.04194 15.6075 7.4047 15.5335C11.5376 14.6331 15.0875 15.0154 17.9378 16.6806C18.2617 16.8656 18.3654 17.2603 18.171 17.5687ZM19.4925 14.7564C19.2464 15.1388 18.7281 15.2498 18.3265 15.0278C15.4114 13.3133 10.9676 12.8199 7.52131 13.819C7.06785 13.9423 6.60144 13.708 6.47188 13.2886C6.34232 12.8569 6.58849 12.4129 7.04194 12.2895C10.9805 11.1547 15.8778 11.6975 19.2334 13.6586C19.6091 13.8807 19.7387 14.374 19.4925 14.7564ZM19.6091 11.8208C16.111 9.84729 10.3457 9.66228 7.00307 10.6244C6.47188 10.7847 5.90182 10.501 5.7334 9.98297C5.56497 9.47726 5.87591 8.93455 6.4071 8.7742C10.242 7.6641 16.6163 7.88612 20.6326 10.1557C21.112 10.427 21.2675 11.0191 20.9825 11.4754C20.7104 11.9441 20.0885 12.1045 19.6091 11.8208Z" fill="white"/>
</svg>
