<svg xmlns="http://www.w3.org/2000/svg" width="375" viewBox="0 0 375 375" height="375" version="1.0"><defs><clipPath id="a"><path d="M 37.5 37.714844 L 337.5 37.714844 L 337.5 337.714844 L 37.5 337.714844 Z M 37.5 37.714844"/></clipPath></defs><g clip-path="url(#a)"><path fill="#9A7FFF" d="M 337.5 187.714844 C 337.5 270.558594 270.34375 337.714844 187.5 337.714844 C 104.65625 337.714844 37.5 270.558594 37.5 187.714844 C 37.5 104.871094 104.65625 37.714844 187.5 37.714844 C 270.34375 37.714844 337.5 104.871094 337.5 187.714844 Z M 337.5 187.714844"/></g><path fill="#7E5CFF" d="M 333.152344 223.664062 L 237.136719 127.648438 C 237.136719 127.648438 187.5 118.476562 163.035156 121.445312 C 138.570312 124.414062 145.089844 251.230469 145.089844 251.230469 L 226.457031 332.59375 C 278.984375 318.503906 320.125 276.621094 333.152344 223.664062 Z M 333.152344 223.664062"/><path fill="#F8FFFB" d="M 257.875 249.289062 L 240.578125 231.992188 C 245.78125 222.980469 248.753906 212.527344 248.753906 201.394531 L 248.753906 163.566406 C 248.753906 129.679688 221.183594 102.109375 187.296875 102.109375 L 181.007812 102.109375 C 147.121094 102.109375 119.550781 129.679688 119.550781 163.566406 L 119.550781 201.394531 C 119.550781 235.28125 147.121094 262.851562 181.007812 262.851562 L 187.300781 262.851562 C 197.726562 262.851562 207.550781 260.234375 216.160156 255.636719 L 233.84375 273.320312 Z M 187.300781 228.867188 L 181.007812 228.867188 C 165.859375 228.867188 153.535156 216.539062 153.535156 201.394531 L 153.535156 163.566406 C 153.535156 148.417969 165.859375 136.09375 181.007812 136.09375 L 187.300781 136.09375 C 202.449219 136.09375 214.769531 148.417969 214.769531 163.566406 L 214.769531 201.394531 C 214.769531 202.902344 214.644531 204.382812 214.410156 205.824219 L 198.105469 189.519531 L 174.074219 213.546875 L 189.304688 228.78125 C 188.644531 228.832031 187.976562 228.867188 187.300781 228.867188 Z M 187.300781 228.867188"/><path fill="#D8D8D8" d="M 240.578125 231.992188 C 245.777344 222.980469 248.753906 212.523438 248.753906 201.390625 L 248.753906 163.570312 C 248.753906 129.746094 221.292969 102.21875 187.5 102.109375 L 187.5 136.101562 C 202.550781 136.199219 214.769531 148.480469 214.769531 163.570312 L 214.769531 201.390625 C 214.769531 202.902344 214.644531 204.378906 214.40625 205.820312 L 198.105469 189.519531 L 187.5 200.128906 L 187.5 226.980469 L 189.304688 228.78125 C 188.707031 228.824219 188.109375 228.859375 187.5 228.867188 L 187.5 262.851562 C 197.847656 262.816406 207.605469 260.207031 216.160156 255.636719 L 233.847656 273.320312 L 257.875 249.289062 Z M 240.578125 231.992188"/></svg>